<svg xmlns="http://www.w3.org/2000/svg" width="1200" height="630" viewBox="0 0 1200 630" role="img" aria-label="Apache HTTP Server feature atlas illustration">
  <defs>
    <linearGradient id="bg" x1="0" y1="0" x2="1" y2="1">
      <stop offset="0" stop-color="#111827"/>
      <stop offset="0.54" stop-color="#1f2937"/>
      <stop offset="1" stop-color="#0f172a"/>
    </linearGradient>
    <linearGradient id="accent" x1="0" y1="0" x2="1" y2="1">
      <stop offset="0" stop-color="#f97316"/>
      <stop offset="1" stop-color="#14b8a6"/>
    </linearGradient>
    <filter id="softShadow" x="-20%" y="-20%" width="140%" height="140%">
      <feDropShadow dx="0" dy="18" stdDeviation="20" flood-color="#000000" flood-opacity="0.28"/>
    </filter>
  </defs>
  <rect width="1200" height="630" fill="url(#bg)"/>
  <g opacity="0.14">
    <path d="M0 120H1200M0 240H1200M0 360H1200M0 480H1200" stroke="#ffffff"/>
    <path d="M160 0V630M320 0V630M480 0V630M640 0V630M800 0V630M960 0V630" stroke="#ffffff"/>
  </g>
  <g filter="url(#softShadow)">
    <rect x="90" y="88" width="1020" height="454" rx="30" fill="#f8fafc"/>
    <rect x="90" y="88" width="1020" height="88" rx="30" fill="#e5e7eb"/>
    <circle cx="132" cy="132" r="10" fill="#ef4444"/>
    <circle cx="164" cy="132" r="10" fill="#f59e0b"/>
    <circle cx="196" cy="132" r="10" fill="#22c55e"/>
    <rect x="250" y="115" width="360" height="34" rx="17" fill="#ffffff"/>
    <rect x="660" y="115" width="110" height="34" rx="17" fill="#d1d5db"/>
    <rect x="790" y="115" width="90" height="34" rx="17" fill="#d1d5db"/>
  </g>
  <g transform="translate(150 218)">
    <rect x="0" y="0" width="210" height="118" rx="18" fill="#111827"/>
    <rect x="30" y="32" width="150" height="16" rx="8" fill="#f97316"/>
    <rect x="30" y="62" width="110" height="12" rx="6" fill="#94a3b8"/>
    <rect x="30" y="84" width="132" height="12" rx="6" fill="#64748b"/>
  </g>
  <g transform="translate(495 210)">
    <circle cx="105" cy="78" r="76" fill="url(#accent)"/>
    <circle cx="105" cy="78" r="44" fill="#f8fafc"/>
    <path d="M80 82h50M105 57v50" stroke="#111827" stroke-width="12" stroke-linecap="round"/>
  </g>
  <g transform="translate(840 218)">
    <rect x="0" y="0" width="210" height="118" rx="18" fill="#111827"/>
    <rect x="30" y="32" width="70" height="16" rx="8" fill="#14b8a6"/>
    <rect x="30" y="62" width="150" height="12" rx="6" fill="#94a3b8"/>
    <rect x="30" y="84" width="112" height="12" rx="6" fill="#64748b"/>
  </g>
  <path d="M365 276C420 276 440 286 486 286" fill="none" stroke="#f97316" stroke-width="10" stroke-linecap="round"/>
  <path d="M714 286C760 286 782 276 835 276" fill="none" stroke="#14b8a6" stroke-width="10" stroke-linecap="round"/>
  <g transform="translate(150 390)">
    <rect width="174" height="42" rx="21" fill="#fee2e2"/>
    <text x="87" y="27" text-anchor="middle" font-family="Arial, sans-serif" font-size="17" font-weight="700" fill="#991b1b">security</text>
  </g>
  <g transform="translate(355 390)">
    <rect width="174" height="42" rx="21" fill="#dbeafe"/>
    <text x="87" y="27" text-anchor="middle" font-family="Arial, sans-serif" font-size="17" font-weight="700" fill="#1d4ed8">gateway</text>
  </g>
  <g transform="translate(560 390)">
    <rect width="174" height="42" rx="21" fill="#dcfce7"/>
    <text x="87" y="27" text-anchor="middle" font-family="Arial, sans-serif" font-size="17" font-weight="700" fill="#166534">traffic</text>
  </g>
  <g transform="translate(765 390)">
    <rect width="174" height="42" rx="21" fill="#fef3c7"/>
    <text x="87" y="27" text-anchor="middle" font-family="Arial, sans-serif" font-size="17" font-weight="700" fill="#92400e">performance</text>
  </g>
  <text x="600" y="500" text-anchor="middle" font-family="Arial, sans-serif" font-size="46" font-weight="800" fill="#111827">Apache HTTP Server Feature Atlas</text>
</svg>
